<svg width="28" height="28" viewBox="0 0 28 28" fill="none" xmlns="http://www.w3.org/2000/svg">
<path d="M14.134 2.9751H17.809C17.8485 3.13562 17.8792 3.29817 17.9009 3.46204C18.0129 4.7401 18.5976 5.93044 19.5406 6.80036C20.4835 7.67029 21.7171 8.15726 23 8.16608V11.6298C22.8281 11.6857 22.6477 11.7106 22.4671 11.7033C21.6123 11.6089 20.765 11.4554 19.9313 11.2439C19.2119 10.967 18.512 10.6417 17.8366 10.27V10.7294C17.8366 12.5669 17.8366 14.4596 17.8366 16.3246C17.8458 17.0837 17.7966 17.8424 17.6896 18.594C17.5284 19.8485 17.0486 21.0408 16.2959 22.0572C15.5432 23.0737 14.5427 23.8804 13.3898 24.4005C12.7123 24.6497 12.0185 24.8523 11.3134 25.0069H10.0363C9.98282 24.9815 9.92755 24.96 9.87095 24.9426C8.57658 24.778 7.3607 24.2311 6.37875 23.3719C5.39679 22.5127 4.69337 21.3802 4.35841 20.1191C4.20419 19.5703 4.08754 19.0116 4.00928 18.447V17.372C4.11034 16.8667 4.18384 16.3614 4.33084 15.8653C4.74492 14.5405 5.54492 13.3694 6.62844 12.5019C7.71197 11.6344 9.02972 11.11 10.413 10.9959C10.8265 10.9315 11.2399 10.9132 11.6809 10.8764C11.6809 12.0708 11.6809 13.1733 11.6809 14.285C11.6809 14.5514 11.5431 14.5882 11.3226 14.6525C10.6182 14.814 9.92709 15.029 9.25538 15.2956C8.73805 15.4906 8.29357 15.8406 7.98274 16.2978C7.67192 16.755 7.50993 17.297 7.51893 17.8498C7.47997 18.4766 7.62649 19.1011 7.9402 19.6452C8.25391 20.1893 8.72092 20.6289 9.28295 20.9092C9.79688 21.227 10.3938 21.3845 10.9977 21.3616C11.6015 21.3387 12.1848 21.1364 12.6732 20.7806C13.0388 20.5188 13.3455 20.1832 13.5734 19.7955C13.8013 19.4077 13.9453 18.9765 13.9962 18.5297C14.106 17.6152 14.1521 16.6942 14.134 15.7734C14.134 11.6941 14.134 7.61176 14.134 3.52635C14.1616 3.33341 14.1432 3.15885 14.134 2.9751Z" fill="#332A4F"/>
</svg>
