<svg width="28" height="28" viewBox="0 0 28 28" fill="none" xmlns="http://www.w3.org/2000/svg">
<path d="M14.9445 3.49854C8.89812 3.49854 5.84912 7.83327 5.84912 11.4488C5.84912 13.6375 6.67779 15.5846 8.45485 16.3096C8.74636 16.4297 9.0076 16.314 9.09216 15.9914C9.1509 15.7688 9.2902 15.2054 9.35206 14.97C9.43707 14.6509 9.40413 14.5396 9.16871 14.2606C8.65646 13.6567 8.32846 12.8743 8.32846 11.7652C8.32846 8.54934 10.7348 5.67035 14.5942 5.67035C18.0117 5.67035 19.8894 7.7585 19.8894 10.5467C19.8894 14.2165 18.2654 17.3136 15.855 17.3136C14.5235 17.3136 13.5275 16.213 13.8461 14.8623C14.2284 13.2499 14.9694 11.5107 14.9694 10.346C14.9694 9.30458 14.41 8.43586 13.2533 8.43586C11.8924 8.43586 10.7989 9.84398 10.7989 11.7296C10.7989 12.9308 11.2048 13.7435 11.2048 13.7435C11.2048 13.7435 9.81224 19.6447 9.56791 20.6781C9.08192 22.7365 9.49492 25.259 9.53008 25.5135C9.55055 25.6649 9.74459 25.7013 9.83271 25.5874C9.95777 25.4232 11.5795 23.4223 12.13 21.4222C12.2862 20.8566 13.025 17.9246 13.025 17.9246C13.4674 18.7684 14.7598 19.5099 16.1341 19.5099C20.2245 19.5099 23.0002 15.7809 23.0002 10.7892C23.0007 7.01394 19.8035 3.49854 14.9445 3.49854Z" fill="#332A4F"/>
</svg>
