<svg width="176" height="176" viewBox="0 0 176 176" fill="none" xmlns="http://www.w3.org/2000/svg">
<path d="M85.9874 1.96961C86.3223 -0.354931 89.6777 -0.354925 90.0126 1.96962L96.6927 48.3374C96.9476 50.1068 99.1977 50.7097 100.303 49.3048L129.272 12.4892C130.725 10.6435 133.63 12.3212 132.758 14.5018L115.359 57.9975C114.695 59.6573 116.343 61.3046 118.003 60.6406L161.498 43.2419C163.679 42.3696 165.356 45.2754 163.511 46.7277L126.695 75.6968C125.29 76.8023 125.893 79.0524 127.663 79.3073L174.03 85.9874C176.355 86.3223 176.355 89.6777 174.03 90.0126L127.663 96.6927C125.893 96.9476 125.29 99.1977 126.695 100.303L163.511 129.272C165.356 130.725 163.679 133.63 161.498 132.758L118.003 115.359C116.343 114.695 114.695 116.343 115.359 118.003L132.758 161.498C133.63 163.679 130.725 165.356 129.272 163.511L100.303 126.695C99.1977 125.29 96.9476 125.893 96.6927 127.663L90.0126 174.03C89.6777 176.355 86.3223 176.355 85.9874 174.03L79.3073 127.663C79.0524 125.893 76.8023 125.29 75.6968 126.695L46.7277 163.511C45.2754 165.356 42.3696 163.679 43.2419 161.498L60.6406 118.003C61.3046 116.343 59.6573 114.695 57.9975 115.359L14.5018 132.758C12.3212 133.63 10.6435 130.725 12.4892 129.272L49.3048 100.303C50.7097 99.1977 50.1068 96.9476 48.3374 96.6927L1.96961 90.0126C-0.354931 89.6777 -0.354925 86.3223 1.96962 85.9874L48.3374 79.3073C50.1068 79.0524 50.7097 76.8023 49.3048 75.6968L12.4892 46.7277C10.6435 45.2754 12.3212 42.3696 14.5018 43.2419L57.9975 60.6406C59.6573 61.3046 61.3046 59.6573 60.6406 57.9975L43.2419 14.5018C42.3696 12.3212 45.2755 10.6435 46.7277 12.4892L75.6968 49.3048C76.8023 50.7097 79.0524 50.1068 79.3073 48.3374L85.9874 1.96961Z" fill="#FF715B"/>
</svg>
