<svg width="40" height="40" viewBox="0 0 40 40" fill="none" xmlns="http://www.w3.org/2000/svg">
<path d="M15.7491 6.13036L15.6252 1.67226C15.6252 1.67226 15.068 0.867321 14.7584 1.23883C14.263 1.79609 11.9721 3.5298 9 4.14898V4.52049L11.6625 6.13036C11.7244 6.25419 11.7244 6.31611 11.7863 6.37803L19.0926 19.1331L13.2104 29.4735C13.1485 29.4735 13.1485 29.5354 13.1485 29.5354C8.3189 37.4609 9.18575 38.6993 9.30959 39.7519L9.55726 39.9995C9.55726 39.9995 11.1671 40.0614 12.2817 38.7612C12.4674 38.5135 12.4674 32.074 13.8915 29.2258L19.4022 19.6285L24.3557 28.3589C23.8603 30.588 22.2505 30.2165 22.2505 30.2165V30.7737C22.2505 30.7737 28.0088 30.588 29.8045 31.5168L30.1141 30.9595C27.0801 26.2537 24.1699 21.2384 21.3836 16.1611L24.5414 10.5885C29.371 2.72486 28.7519 1.30075 28.6899 0.248141L28.3804 0.000468202C28.3804 0.000468202 26.8324 -0.0614505 25.656 1.23883C25.4702 1.4865 25.4083 7.18296 24.1699 10.2169L21.074 15.6657C19.2784 12.446 17.4828 9.28818 15.7491 6.13036Z" fill="#332A4F"/>
</svg>
