<svg width="150" height="38" viewBox="0 0 150 38" fill="none" xmlns="http://www.w3.org/2000/svg">
<path fill-rule="evenodd" clip-rule="evenodd" d="M149.088 32.0383C149.088 33.5491 147.864 34.7739 146.353 34.7739H3.64767C2.13686 34.7739 0.912109 33.5491 0.912109 32.0383V32.0383C0.912109 30.5275 2.13687 29.3027 3.64768 29.3027H146.353C147.864 29.3027 149.088 30.5275 149.088 32.0383V32.0383Z" fill="#FAF2FF" stroke="#332A4F" stroke-width="0.455927"/>
<path d="M19.4337 2.49134C12.5642 2.49134 6.39468 8.57331 3.94439 17.6744C1.4941 26.7755 4.4257 32.9012 11.2953 32.9012C12.5642 32.9012 13.8331 32.6824 15.0582 32.2449C15.4083 33.8201 15.627 34.7827 15.6708 34.8264C16.7209 36.6641 18.1648 37.1455 19.2587 37.1455C20.0901 37.1455 20.7464 36.8829 21.0089 36.7517L21.2277 36.5766C21.2277 36.5766 22.2341 33.2512 20.7026 33.6888C19.3025 34.0826 17.9898 34.8702 16.9834 34.8702C16.6334 34.8702 16.3271 34.7389 16.0646 34.4326C16.0208 34.3889 15.8458 33.5138 15.4958 32.1136C20.5714 30.1446 24.8156 24.8502 26.7408 17.6744C29.1911 8.57331 26.2595 2.49134 19.4337 2.49134ZM15.277 31.151C13.7456 24.4127 10.3764 9.2734 10.2889 9.09837C13.3518 4.94163 17.1585 2.62261 20.2651 2.97265C24.9906 3.54147 27.1784 9.92972 24.2468 18.637C22.2778 24.544 18.7774 29.0507 15.277 31.151ZM10.4639 32.4199C5.82587 31.8511 3.46309 25.4191 6.39468 16.7118C7.31354 13.999 8.53869 11.5924 9.98261 9.57968C10.5514 12.1175 13.4393 25.1565 14.8832 31.4573C13.3518 32.2449 11.8641 32.5949 10.4639 32.4199Z" fill="#332A4F"/>
<path d="M44.8722 11.6799C44.8722 11.6799 44.6097 11.1549 44.3034 11.3736C43.8659 11.7674 41.9407 12.9926 39.6654 13.4301L39.6216 13.7364L41.5906 14.8741L39.2278 23.7564C38.0464 27.3443 34.4148 31.8073 31.9207 31.8073C29.3392 31.8073 30.7393 26.4692 31.0019 25.4628L34.721 11.6799C34.721 11.6799 34.4585 11.1549 34.1522 11.3736C32.9708 12.4238 30.7831 13.2114 29.5579 13.4301L29.4704 13.7364L31.4394 14.8741L28.5953 25.4191C27.9827 27.9569 27.764 32.4636 31.7894 32.4636C34.721 32.4636 37.3901 28.0881 38.7465 25.5503L37.1713 31.1947L39.0091 32.8137L39.3153 32.7262C39.3153 32.7262 40.4967 31.151 42.597 29.357L42.4657 29.007C42.4657 29.007 41.7656 29.8821 41.0218 30.5384C40.453 31.1072 39.8842 31.5885 39.7529 31.5885C39.5779 31.5885 39.7091 30.8885 39.8842 30.1009L44.8722 11.6799Z" fill="#332A4F"/>
<path d="M51.5412 9.05462C52.3287 9.05462 53.2039 8.22327 53.4664 7.17315C53.7289 6.12302 53.3351 5.29167 52.5475 5.29167C51.7599 5.29167 50.9286 6.12302 50.6223 7.17315C50.3598 8.22327 50.7536 9.05462 51.5412 9.05462ZM45.3717 27.8256L44.4966 31.1947L46.2468 32.8137L46.5968 32.7262C46.5968 32.7262 47.7782 31.151 49.8785 29.357L49.7472 29.007C49.7472 29.007 49.0471 29.8821 48.3033 30.5384C47.6907 31.1072 47.1219 31.5885 47.0344 31.5885C46.7718 31.5885 47.1219 30.2759 47.3844 29.3133L52.11 11.6799C52.11 11.6799 51.8474 11.1549 51.5849 11.3736C51.1474 11.7674 49.2659 12.9488 47.0781 13.3864C46.4218 13.4301 45.853 13.2989 45.3717 12.9926L45.2404 13.2114C45.7655 13.5176 46.3343 13.6927 46.9906 13.6927L48.9158 14.7428L45.3717 27.8256Z" fill="#332A4F"/>
<path d="M66.2436 26.8192C64.2746 30.4072 60.3804 32.7262 57.0987 32.3324C53.8171 31.9386 52.9858 27.5193 55.0423 21.3936C56.9237 15.7054 60.4241 11.7237 63.487 11.7237C63.7933 11.7237 64.1433 11.7674 64.4496 11.855C65.7623 12.2487 65.456 14.6115 65.806 16.7118C65.8935 17.1493 66.0686 17.3244 66.3748 17.3244C67.1187 17.3244 68.4313 16.0117 68.4313 16.0117L68.5189 15.7054C68.5189 15.0053 68.0813 11.8987 64.6246 11.4612C59.4178 10.7173 54.3422 15.1803 52.5045 22.0937C50.798 28.4819 52.8107 32.8137 57.6676 32.8137C61.168 32.8137 64.4496 30.5384 66.6374 26.8192H66.2436Z" fill="#332A4F"/>
<path d="M75.5764 18.4182C75.5764 18.4182 78.3768 8.00449 79.0331 5.51045L79.8644 2.40383C79.8644 2.40383 79.6457 1.87877 79.3394 2.09754C78.9018 2.49134 77.0204 3.71648 74.8326 4.11028L74.7451 4.41657C75.4014 4.76661 76.6266 5.46669 76.6266 5.46669L70.1508 29.5758C69.4069 32.3761 67.963 31.9823 67.963 31.9823L67.8318 32.3761C71.8135 32.3761 71.901 32.9012 71.901 32.9012L72.251 32.6824L72.5136 29.7946L75.3139 19.3808C75.6202 18.987 75.9265 18.5933 76.2328 18.2432C77.0641 22.4875 77.8517 27.038 78.7268 31.1947L81.3084 32.8137L81.6146 32.7262C81.6146 32.7262 82.4897 31.151 84.2837 29.357L84.0649 29.007C84.0649 29.007 83.4961 29.8821 82.9273 30.5384C82.446 31.1072 82.0959 31.4573 82.0084 31.4573C80.3457 26.4692 79.5144 21.3061 78.5518 15.8804C79.6019 14.8741 81.9647 12.9488 83.2336 12.5988C84.2837 12.2925 84.3275 13.5176 85.1151 14.6553C85.2463 14.8303 85.3776 14.8741 85.5089 14.8741C86.2527 14.8741 87.2153 13.4739 87.2153 13.4739C87.2153 13.4301 87.2153 13.2989 87.2153 13.2551C87.084 12.9051 86.384 11.8987 84.8963 11.8987C81.9209 11.8987 77.2829 16.2742 75.5764 18.4182Z" fill="#332A4F"/>
<path d="M85.809 31.1947L87.6029 32.8137L87.953 32.7262C87.953 32.7262 89.1344 31.151 91.2346 29.357L91.1034 29.007C91.1034 29.007 90.4033 29.8821 89.6594 30.5384C89.0469 31.1072 88.4781 31.5885 88.3905 31.5885C88.2155 31.5885 88.303 31.0197 88.4781 30.3634C90.7971 21.6124 93.1599 12.9051 95.4789 4.15404L95.9602 2.40383C95.9602 2.40383 95.6977 1.83501 95.4351 2.09754C94.9976 2.49134 93.1161 3.67273 90.9283 4.11028L90.8408 4.37281L92.6785 5.42294L85.809 31.1947Z" fill="#332A4F"/>
<path d="M100.168 9.05462C100.955 9.05462 101.83 8.22327 102.093 7.17315C102.355 6.12302 101.961 5.29167 101.174 5.29167C100.386 5.29167 99.555 6.12302 99.2487 7.17315C98.9861 8.22327 99.3799 9.05462 100.168 9.05462ZM93.998 27.8256L93.1229 31.1947L94.8732 32.8137L95.2232 32.7262C95.2232 32.7262 96.4046 31.151 98.5048 29.357L98.3736 29.007C98.3736 29.007 97.6735 29.8821 96.9296 30.5384C96.3171 31.1072 95.7482 31.5885 95.6607 31.5885C95.3982 31.5885 95.7483 30.2759 96.0108 29.3133L100.736 11.6799C100.736 11.6799 100.474 11.1549 100.211 11.3736C99.7737 11.7674 97.8923 12.9488 95.7045 13.3864C95.0482 13.4301 94.4794 13.2989 93.998 12.9926L93.8668 13.2114C94.3918 13.5176 94.9607 13.6927 95.617 13.6927L97.5422 14.7428L93.998 27.8256Z" fill="#332A4F"/>
<path d="M108.438 11.7674C108.438 11.7674 108.35 11.5924 108.219 11.5049L105.375 14.174L101.175 29.8821C100.387 32.2886 99.0743 31.9386 99.0743 31.9386L98.9431 32.3324C102.925 32.3324 103.012 32.8574 103.012 32.8574L103.362 32.6387L103.669 29.6196L108.438 11.7674ZM112.638 30.2759L115.745 18.5933C116.445 16.0992 116.839 11.4174 112.77 11.4174C108.657 11.4174 105.419 24.0189 103.319 28.9195L103.669 29.6196C104.587 25.9441 109.007 12.03 112.638 12.03C115.483 12.03 113.339 18.5933 113.339 18.5933L110.144 30.5384L112.638 30.2759ZM108.263 12.4238L108.438 11.7674C108.438 11.7674 108.175 11.2424 107.913 11.4612C107.475 11.855 105.594 13.0363 103.406 13.4739L103.319 13.7802L105.594 15.0491L108.263 12.4238ZM110.801 28.0006L109.969 31.1947L111.763 32.8137L112.07 32.7262C112.07 32.7262 113.295 31.151 115.395 29.357L115.264 29.007C115.264 29.007 114.52 29.8821 113.776 30.5384C113.207 31.1072 112.638 31.5885 112.551 31.5885C112.245 31.5885 112.682 30.0571 112.945 29.0507L110.801 28.0006Z" fill="#332A4F"/>
<path d="M123.348 18.4182C123.348 18.4182 126.149 8.00449 126.805 5.51045L127.636 2.40383C127.636 2.40383 127.417 1.87877 127.111 2.09754C126.674 2.49134 124.792 3.71648 122.604 4.11028L122.517 4.41657C123.173 4.76661 124.398 5.46669 124.398 5.46669L117.923 29.5758C117.179 32.3761 115.735 31.9823 115.735 31.9823L115.604 32.3761C119.585 32.3761 119.673 32.9012 119.673 32.9012L120.023 32.6824L120.285 29.7946L123.086 19.3808C123.392 18.987 123.698 18.5933 124.005 18.2432C124.836 22.4875 125.623 27.038 126.499 31.1947L129.08 32.8137L129.386 32.7262C129.386 32.7262 130.262 31.151 132.055 29.357L131.837 29.007C131.837 29.007 131.268 29.8821 130.699 30.5384C130.218 31.1072 129.868 31.4573 129.78 31.4573C128.118 26.4692 127.286 21.3061 126.324 15.8804C127.374 14.8741 129.736 12.9488 131.005 12.5988C132.055 12.2925 132.099 13.5176 132.887 14.6553C133.018 14.8303 133.149 14.8741 133.281 14.8741C134.024 14.8741 134.987 13.4739 134.987 13.4739C134.987 13.4301 134.987 13.2989 134.987 13.2551C134.856 12.9051 134.156 11.8987 132.668 11.8987C129.693 11.8987 125.055 16.2742 123.348 18.4182Z" fill="#332A4F"/>
<path d="M138.788 15.2679C139.444 12.7738 142.288 11.7674 144.213 11.6799C144.432 11.6799 147.101 15.3116 147.101 15.3116C148.195 15.0491 149.201 13.8677 149.201 13.8677L149.289 13.5176C149.026 13.0363 147.364 11.2424 144.651 11.2424C140.625 11.2424 138.306 13.9552 137.387 17.3244C135.375 24.8502 146.707 23.1 144.52 28.9632C144.082 30.0571 142.813 31.6323 140.888 32.1136C140.057 32.3324 139.05 32.1574 137.956 31.8073C137.825 31.7198 135.725 27.3005 135.725 27.3005C134.675 27.213 133.537 28.1319 133.537 28.1319L133.406 28.4819C133.8 30.6259 136.512 32.6824 139.4 32.6824C142.769 32.6824 145.045 30.1009 146.007 27.038C148.151 20.3872 137.344 20.7373 138.788 15.2679Z" fill="#332A4F"/>
</svg>
