<svg width="192" height="32" viewBox="0 0 192 32" fill="none" xmlns="http://www.w3.org/2000/svg">
<path d="M14.8295 3.60252C15.1979 2.4686 16.8021 2.4686 17.1705 3.60252L19.3159 10.2053C19.4807 10.7124 19.9532 11.0557 20.4864 11.0557H27.429C28.6213 11.0557 29.117 12.5814 28.1524 13.2822L22.5358 17.3629C22.1044 17.6764 21.9239 18.2319 22.0887 18.739L24.234 25.3417C24.6025 26.4757 23.3046 27.4186 22.3401 26.7178L16.7234 22.6371C16.2921 22.3236 15.7079 22.3236 15.2766 22.6371L9.65992 26.7178C8.69535 27.4186 7.39753 26.4757 7.76597 25.3417L9.91133 18.739C10.0761 18.2319 9.8956 17.6764 9.46423 17.3629L3.84758 13.2822C2.88301 12.5814 3.37874 11.0557 4.57101 11.0557H11.5136C12.0468 11.0557 12.5193 10.7124 12.6841 10.2053L14.8295 3.60252Z" fill="#FF715B"/>
<path d="M54.8295 3.60252C55.1979 2.4686 56.8021 2.4686 57.1705 3.60252L59.3159 10.2053C59.4807 10.7124 59.9532 11.0557 60.4864 11.0557H67.429C68.6213 11.0557 69.117 12.5814 68.1524 13.2822L62.5358 17.3629C62.1044 17.6764 61.9239 18.2319 62.0887 18.739L64.234 25.3417C64.6025 26.4757 63.3046 27.4186 62.3401 26.7178L56.7234 22.6371C56.2921 22.3236 55.7079 22.3236 55.2766 22.6371L49.6599 26.7178C48.6954 27.4186 47.3975 26.4757 47.766 25.3417L49.9113 18.739C50.0761 18.2319 49.8956 17.6764 49.4642 17.3629L43.8476 13.2822C42.883 12.5814 43.3787 11.0557 44.571 11.0557H51.5136C52.0468 11.0557 52.5193 10.7124 52.6841 10.2053L54.8295 3.60252Z" fill="#FF715B"/>
<path d="M94.8295 3.60252C95.1979 2.4686 96.8021 2.4686 97.1705 3.60252L99.3159 10.2053C99.4807 10.7124 99.9532 11.0557 100.486 11.0557H107.429C108.621 11.0557 109.117 12.5814 108.152 13.2822L102.536 17.3629C102.104 17.6764 101.924 18.2319 102.089 18.739L104.234 25.3417C104.602 26.4757 103.305 27.4186 102.34 26.7178L96.7234 22.6371C96.2921 22.3236 95.7079 22.3236 95.2766 22.6371L89.6599 26.7178C88.6954 27.4186 87.3975 26.4757 87.766 25.3417L89.9113 18.739C90.0761 18.2319 89.8956 17.6764 89.4642 17.3629L83.8476 13.2822C82.883 12.5814 83.3787 11.0557 84.571 11.0557H91.5136C92.0468 11.0557 92.5193 10.7124 92.6841 10.2053L94.8295 3.60252Z" fill="#FF715B"/>
<path d="M134.829 3.60252C135.198 2.4686 136.802 2.4686 137.171 3.60252L139.316 10.2053C139.481 10.7124 139.953 11.0557 140.486 11.0557H147.429C148.621 11.0557 149.117 12.5814 148.152 13.2822L142.536 17.3629C142.104 17.6764 141.924 18.2319 142.089 18.739L144.234 25.3417C144.602 26.4757 143.305 27.4186 142.34 26.7178L136.723 22.6371C136.292 22.3236 135.708 22.3236 135.277 22.6371L129.66 26.7178C128.695 27.4186 127.398 26.4757 127.766 25.3417L129.911 18.739C130.076 18.2319 129.896 17.6764 129.464 17.3629L123.848 13.2822C122.883 12.5814 123.379 11.0557 124.571 11.0557H131.514C132.047 11.0557 132.519 10.7124 132.684 10.2053L134.829 3.60252Z" fill="#FF715B"/>
<path d="M174.829 3.60252C175.198 2.4686 176.802 2.4686 177.171 3.60252L179.316 10.2053C179.481 10.7124 179.953 11.0557 180.486 11.0557H187.429C188.621 11.0557 189.117 12.5814 188.152 13.2822L182.536 17.3629C182.104 17.6764 181.924 18.2319 182.089 18.739L184.234 25.3417C184.602 26.4757 183.305 27.4186 182.34 26.7178L176.723 22.6371C176.292 22.3236 175.708 22.3236 175.277 22.6371L169.66 26.7178C168.695 27.4186 167.398 26.4757 167.766 25.3417L169.911 18.739C170.076 18.2319 169.896 17.6764 169.464 17.3629L163.848 13.2822C162.883 12.5814 163.379 11.0557 164.571 11.0557H171.514C172.047 11.0557 172.519 10.7124 172.684 10.2053L174.829 3.60252Z" fill="#FF715B"/>
</svg>
