<svg width="28" height="28" viewBox="0 0 28 28" fill="none" xmlns="http://www.w3.org/2000/svg">
<path d="M13.926 8.85693C10.8003 8.85693 8.21045 11.4021 8.21045 14.5725C8.21045 17.7428 10.7557 20.288 13.926 20.288C17.0964 20.288 19.6416 17.6982 19.6416 14.5725C19.6416 11.4468 17.0517 8.85693 13.926 8.85693ZM13.926 18.234C11.9166 18.234 10.2645 16.5819 10.2645 14.5725C10.2645 12.5631 11.9166 10.911 13.926 10.911C15.9354 10.911 17.5875 12.5631 17.5875 14.5725C17.5875 16.5819 15.9354 18.234 13.926 18.234Z" fill="#332A4F"/>
<path d="M19.8652 10.018C20.5804 10.018 21.1602 9.4382 21.1602 8.72303C21.1602 8.00786 20.5804 7.4281 19.8652 7.4281C19.1501 7.4281 18.5703 8.00786 18.5703 8.72303C18.5703 9.4382 19.1501 10.018 19.8652 10.018Z" fill="#332A4F"/>
<path d="M23.2137 5.3741C22.0527 4.16847 20.4006 3.54333 18.5252 3.54333H9.3267C5.44191 3.54333 2.85205 6.1332 2.85205 10.018V19.1718C2.85205 21.0919 3.47719 22.744 4.72747 23.9497C5.93309 25.1106 7.54059 25.6911 9.37136 25.6911H18.4805C20.4006 25.6911 22.0081 25.066 23.1691 23.9497C24.3747 22.7887 24.9998 21.1365 24.9998 19.2165V10.018C24.9998 8.14257 24.3747 6.53507 23.2137 5.3741ZM23.0351 19.2165C23.0351 20.6007 22.5439 21.717 21.7402 22.4761C20.9364 23.2352 19.8201 23.6371 18.4805 23.6371H9.37136C8.03177 23.6371 6.91545 23.2352 6.1117 22.4761C5.30795 21.6724 4.90608 20.556 4.90608 19.1718V10.018C4.90608 8.6784 5.30795 7.56208 6.1117 6.75833C6.8708 5.99924 8.03177 5.59736 9.37136 5.59736H18.5698C19.9094 5.59736 21.0257 5.99924 21.8295 6.80299C22.5886 7.60674 23.0351 8.72306 23.0351 10.018V19.2165Z" fill="#332A4F"/>
</svg>
